<svg width="439" height="563" viewBox="0 0 439 563" fill="none" xmlns="http://www.w3.org/2000/svg">
<path d="M438.362 72.9191H0V24.7411C0 11.4851 10.7461 0.739014 24.0021 0.739014H414.359C427.615 0.739014 438.361 11.4851 438.361 24.7411L438.362 72.9191Z" fill="#26881B"/>
<path d="M223.693 72.9191H221.235H33.6382L91.3252 513.082C92.5352 522.311 100.4 529.213 109.709 529.213H221.235H223.693H335.219C344.527 529.213 352.393 522.311 353.603 513.082L411.291 72.9191H223.693Z" fill="#26881B"/>
<path d="M78.9772 439.661H33.6392V562.888H78.9772V439.661Z" fill="#313738"/>
<path d="M78.9772 439.661H67.2971C69.0261 452.056 70.4792 464.519 69.9082 477.004C69.2422 491.552 65.6481 506.3 57.2701 518.211C53.5861 523.449 48.9281 528.034 43.5881 531.575C40.4481 533.657 37.0231 534.856 33.6401 536.156V562.889H78.9781L78.9772 439.661Z" fill="#131616"/>
<path d="M33.8951 456.513C24.3741 463.306 17.5962 480.781 17.5962 501.275C17.5962 521.769 24.3741 539.244 33.8951 546.037V456.513Z" fill="#26881B"/>
<path d="M367.045 562.833L412.384 562.642L411.866 439.416L366.528 439.606L367.045 562.833Z" fill="#313738"/>
<path d="M366.517 439.663L378.197 439.614C376.52 452.016 375.12 464.485 375.744 476.967C376.471 491.512 380.127 506.244 388.556 518.12C392.262 523.342 396.94 527.908 402.294 531.426C405.443 533.495 408.873 534.679 412.261 535.965L412.374 562.697L367.036 562.888L366.517 439.663Z" fill="#131616"/>
<path d="M411.668 456.323C421.217 463.076 428.069 480.522 428.156 501.016C428.242 521.51 421.538 539.014 412.046 545.847L411.668 456.323Z" fill="#26881B"/>
</svg>
