<svg width="378" height="167" viewBox="0 0 378 167" fill="none" xmlns="http://www.w3.org/2000/svg">
<path d="M347.712 44.9501C341.223 18.5551 317.554 0 290.373 0H188.826H87.2791C60.0981 0 36.4289 18.5551 29.9399 44.9501L0 166.739H188.826H377.652L347.712 44.9501Z" fill="#26881B"/>
<path d="M299.053 114.684L283.599 40.374C280.832 27.068 269.107 17.53 255.516 17.53H189.54H181.547H115.571C101.98 17.53 90.2548 27.068 87.4878 40.374L72.0337 114.684C68.3297 132.494 81.9267 149.209 100.117 149.209H181.547H189.54H270.97C289.16 149.209 302.757 132.493 299.053 114.684Z" fill="#1B5912"/>
<path d="M283.599 40.374C280.832 27.068 269.106 17.53 255.515 17.53H189.539H181.546H115.57C101.979 17.53 90.2538 27.068 87.4868 40.374L72.0327 114.684C68.3287 132.494 81.9257 149.209 100.116 149.209H137.367C132.255 140.533 129.749 130.132 130.928 120.154C133.607 97.466 151.325 78.645 172.078 69.092C192.831 59.539 216.29 57.8481 239.136 57.9081C255.857 57.9521 274.141 59.764 289.043 66.552L283.599 40.374Z" fill="#153F0D"/>
</svg>
